<?xml version="1.0" standalone="no"?>
<!DOCTYPE svg PUBLIC "-//W3C//DTD SVG 20010904//EN"
 "http://www.w3.org/TR/2001/REC-SVG-20010904/DTD/svg10.dtd">
<svg version="1.0" xmlns="http://www.w3.org/2000/svg"
 width="700.000000pt" height="700.000000pt" viewBox="0 0 700.000000 700.000000"
 preserveAspectRatio="xMidYMid meet">
<metadata>
Created by potrace 1.14, written by Peter Selinger 2001-2017
</metadata>
<g transform="translate(0.000000,700.000000) scale(0.100000,-0.100000)"
fill="#000000" stroke="none">
<path d="M4435 6986 c-101 -33 -328 -162 -460 -261 -79 -59 -253 -224 -293
-278 l-20 -28 -52 86 c-71 117 -161 237 -202 268 -51 40 -103 58 -166 59 -116
2 -184 -35 -276 -150 -199 -250 -344 -541 -392 -787 -2 -11 -6 -31 -9 -45 -13
-62 -19 -165 -19 -280 1 -119 1 -124 -15 -100 -9 13 -31 44 -48 67 -18 24 -33
47 -33 52 0 5 -4 11 -8 13 -4 2 -86 113 -182 247 -180 251 -203 275 -259 264
-51 -9 -77 -35 -87 -89 -6 -33 7 -55 143 -244 65 -91 126 -176 135 -190 9 -14
53 -74 97 -135 43 -60 78 -111 77 -112 -1 -1 -42 13 -92 31 -220 83 -493 109
-759 70 -172 -24 -421 -95 -524 -148 -40 -21 -96 -77 -117 -116 -52 -99 -44
-212 20 -313 39 -60 143 -195 188 -243 l29 -31 -58 -21 c-83 -30 -223 -104
-322 -170 -172 -113 -393 -318 -432 -400 -32 -64 -39 -150 -19 -216 33 -106
82 -148 289 -252 150 -75 182 -79 230 -35 l32 30 94 -31 c90 -29 95 -32 95
-58 0 -56 48 -91 145 -104 22 -3 60 -8 84 -12 61 -8 212 -8 293 0 l67 7 -10
-33 c-6 -18 -12 -41 -14 -51 -2 -10 -6 -26 -9 -35 -3 -9 -8 -39 -12 -67 -3
-27 -8 -52 -9 -55 -7 -12 -18 -194 -18 -295 0 -138 10 -223 29 -253 17 -26 71
-53 91 -45 8 3 13 -2 14 -13 0 -11 2 -26 4 -34 2 -8 8 -37 14 -65 6 -27 13
-60 17 -72 5 -17 2 -23 -9 -23 -9 0 -25 -12 -37 -27 -37 -47 -19 -119 81 -331
123 -260 345 -540 574 -723 74 -60 396 -279 409 -279 3 0 29 -15 58 -33 106
-68 382 -215 578 -309 373 -180 768 -329 1125 -426 98 -26 130 -35 185 -47 97
-23 259 -55 297 -60 26 -4 55 -8 63 -10 22 -6 94 -17 225 -32 78 -10 286 -10
350 -1 330 48 648 285 794 593 57 120 191 558 216 708 3 17 8 39 10 47 2 8 7
31 10 50 3 19 8 42 10 50 4 14 7 29 19 108 24 147 44 315 50 428 4 66 2 74
-22 102 -15 17 -36 32 -46 34 -17 3 -19 12 -17 103 2 96 5 109 19 110 25 2 53
20 68 43 15 23 17 47 15 162 -2 133 -7 233 -16 340 -3 30 -7 84 -10 120 -3 36
-7 76 -10 90 -2 14 -7 50 -10 80 -5 48 -29 208 -39 265 -7 40 -36 191 -40 210
-8 35 -56 249 -60 265 -2 8 -7 29 -11 45 -4 17 -21 73 -37 125 -77 240 -179
438 -336 650 -65 87 -289 314 -377 381 -234 180 -523 316 -795 375 -19 4 -37
8 -40 9 -3 1 -30 5 -60 9 -30 5 -63 10 -73 12 -10 2 -42 4 -72 5 -55 2 -62 6
-47 24 29 33 123 304 111 317 -1 2 2 12 8 23 11 20 27 122 25 158 -1 29 -32
69 -61 80 l-28 10 2 100 2 100 30 12 c69 29 76 77 42 289 -31 198 -82 285
-195 332 -51 21 -151 27 -199 10z"/>
</g>
</svg>
